<svg width="336" height="315" viewBox="0 0 336 315" xmlns="http://www.w3.org/2000/svg"><title>icon-stage- copy 3@3x</title><defs><linearGradient x1="13.647%" y1="36.583%" y2="100%" id="a"><stop stop-color="#D1D1D1" stop-opacity="0" offset="0%"/><stop stop-color="#CAD0D2" offset="100%"/></linearGradient><filter x="-50%" y="-50%" width="200%" height="200%" filterUnits="objectBoundingBox" id="b"><feGaussianBlur stdDeviation="2.466" in="SourceGraphic" result="blur"/></filter><filter x="-50%" y="-50%" width="200%" height="200%" filterUnits="objectBoundingBox" id="c"><feGaussianBlur in="SourceGraphic" result="blur"/></filter><filter x="-50%" y="-50%" width="200%" height="200%" filterUnits="objectBoundingBox" id="d"><feGaussianBlur in="SourceGraphic" result="blur"/></filter></defs><g fill="none" fill-rule="evenodd"><path d="M228.684 270.806l-105.69-35.514 12.592-58.248 82.312 37.818 10.786 55.944z" fill="url(#a)" filter="url(#b)" transform="matrix(-1 0 0 1 355.68 17.278)"/><path d="M198.732 264.824c-55.76 4.93-104.886-36.397-109.726-92.306-4.84-55.908 36.44-105.228 92.198-110.158 55.76-4.93 104.886 36.397 109.726 92.306 2.673 30.88-8.722 59.748-28.856 80.24l4.32 39.214-35.894-17.41c-9.824 4.31-20.5 7.118-31.768 8.114z" fill="#2BC5FB"/><path d="M86.702 225.162c-42.19-44.355-40.92-115.09 2.84-157.992 43.76-42.9 113.435-41.722 155.625 2.634 42.19 44.355 40.92 115.09-2.84 157.992-24.17 23.694-56.243 33.943-87.226 30.896l-30.063 30.884-9.83-42.82c-10.33-5.43-19.98-12.63-28.505-21.594z" fill="#F73845"/><path d="M27.574 187.336c-14.124-13.908-14.694-36.674-1.273-50.85 13.422-14.175 35.752-14.392 49.877-.484 14.124 13.908 14.694 36.674 1.273 50.85-7.413 7.828-17.543 11.4-27.507 10.685l-9.2 10.192L37 194.037a36.028 36.028 0 0 1-9.426-6.702z" fill="#FBC800"/><path d="M286.3 114.756a49.983 49.983 0 0 1-14.393 6.71c-26.107 7.443-53.242-7.227-60.608-32.77-7.366-25.54 7.828-52.28 33.935-59.726 26.107-7.445 53.242 7.226 60.608 32.767 4.067 14.107 1.254 28.58-6.48 39.965l5.607 17.83-18.67-4.776z" fill="#EE478A"/><path d="M241.526 228.25c-24.352 23.875-56.67 34.2-87.89 31.132-36.17-12.99-63.067-46.063-66.596-86.83-4.877-56.333 36.716-106.027 92.9-110.994 30.963-2.738 59.897 8.68 80.45 28.914 25.192 43.762 18.702 100.95-18.864 137.78z" fill="#D82935"/><path d="M62.428 177.606c-9.877-21.526-12.6-45.563-8.237-68.466 6.646 1.272 13.037 4.49 18.292 9.666 14.124 13.907 14.694 36.674 1.273 50.85a34.388 34.388 0 0 1-11.327 7.95z" fill="#C41800" filter="url(#c)" transform="translate(4 17.278)"/><path d="M206.897 46.456c18.372 3.993 35.835 13.328 49.178 25.94 6.283 10.26 9.74 20.544 12.433 31.948-.348.108-.698.21-1.05.312-26.143 7.455-52.73-7.583-59.95-32.26-4.21-14.388-.61-25.94-.61-25.94z" fill="#C41800" filter="url(#d)" transform="translate(4 17.278)"/><path d="M260.087 89.81c3.213 5.174 9.05 16.506 12.346 31.795 1.196-.28 6.636-2.538 8.19-3.466-4.5-8.99-13.405-21.892-20.536-28.33z" fill="#283687"/><path d="M217.632 48.893s-4.017 5.038-6.78 14.894c13.85 2.707 33.556 11.232 49.457 26.365-4.365-10.914-25.773-34.03-42.678-41.26z" fill="#DF1D02"/><g stroke="#FFF" stroke-width="3"><path d="M157.466 131.176h33.808M157.466 171.226h33.808M157.466 144.526h33.808M157.466 157.876h33.808" stroke-linecap="square"/><path d="M139.622 132.315V112.72h69.495v71.884c0 3.867-3.138 7-7.004 7H132.11"/><path d="M120.84 176.845V131.5h18.782V182.22c0 5.183-4.203 9.385-9.39 9.385-5.188 0-9.392-4.2-9.392-9.384v-5.375z"/></g></g></svg>